<?xml version="1.0" standalone="no"?>
<!DOCTYPE svg PUBLIC "-//W3C//DTD SVG 20010904//EN"
 "http://www.w3.org/TR/2001/REC-SVG-20010904/DTD/svg10.dtd">
<svg version="1.0" xmlns="http://www.w3.org/2000/svg"
 width="315.000000pt" height="317.000000pt" viewBox="0 0 315.000000 317.000000"
 preserveAspectRatio="xMidYMid meet">

<g transform="translate(0.000000,317.000000) scale(0.100000,-0.100000)"
fill="#000000" stroke="none">
<path d="M601 3065 c-185 -41 -348 -173 -433 -351 -60 -127 -59 -113 -56
-1167 l3 -962 22 -65 c67 -194 219 -346 413 -413 l65 -22 932 -3 c1046 -3
1012 -5 1162 69 163 80 288 244 326 424 22 104 22 1906 0 2010 -49 234 -247
432 -480 480 -101 21 -1857 21 -1954 0z m1930 -85 c30 -5 90 -28 135 -50 137
-67 239 -194 279 -346 23 -87 23 -1921 0 -2008 -40 -153 -141 -278 -279 -346
-45 -22 -105 -45 -135 -50 -33 -6 -400 -10 -955 -10 -999 0 -968 -2 -1097 66
-130 68 -242 220 -269 363 -13 72 -14 1888 0 1962 17 92 80 207 154 277 69 66
176 125 257 141 63 13 1843 13 1910 1z"/>
<path d="M1505 2394 c-72 -38 -85 -61 -160 -304 -31 -102 -64 -193 -74 -203
-9 -9 -102 -44 -206 -76 -205 -62 -239 -76 -271 -113 -34 -36 -44 -63 -44
-112 0 -79 31 -131 100 -166 19 -9 118 -43 220 -74 102 -31 193 -64 202 -74
10 -9 44 -103 76 -209 33 -105 68 -206 79 -225 62 -106 208 -118 291 -24 20
23 44 85 91 239 35 114 72 214 81 222 10 9 102 42 206 74 204 62 238 77 270
113 34 37 44 63 44 118 0 76 -33 127 -105 163 -16 8 -113 40 -215 72 -102 31
-192 63 -201 71 -9 8 -45 107 -80 221 -67 217 -87 256 -150 289 -37 19 -116
18 -154 -2z m129 -96 c19 -18 40 -71 90 -233 85 -274 68 -258 349 -345 223
-68 247 -82 247 -141 0 -57 -30 -74 -253 -143 -176 -54 -214 -69 -242 -96 -40
-39 -40 -38 -110 -270 -64 -211 -81 -237 -144 -226 -60 9 -59 7 -167 361 -22
73 -35 97 -68 131 -38 37 -55 45 -246 103 -220 67 -250 84 -250 141 0 58 29
75 255 144 254 78 264 86 309 231 15 50 43 141 63 204 22 71 44 123 59 137 30
31 75 31 108 2z"/>
<path d="M1535 1779 c-156 -37 -211 -226 -99 -340 166 -170 436 34 321 244
-21 38 -97 97 -126 97 -9 0 -25 2 -36 4 -11 3 -38 0 -60 -5z m129 -130 c25
-28 28 -38 23 -78 -12 -107 -142 -139 -197 -49 -24 39 -25 69 -5 108 35 68
127 77 179 19z"/>
</g>
</svg>
